. 
  
http://www.torrentday.com/        :     The Hottest Private Tracker On The Net!!!


               www . TorrentDay . Com 
(((((((((((((= Enjoy No RAR releases =))))))))))))))))))))


...................................NFO:....................................

.*******************************************************************************
                 Connie.and.Carla.2004.DVDRip.AC3.X264-BARC0DE
*******************************************************************************

-------------------------------------------------------------------------------
                              General Information
-------------------------------------------------------------------------------
Type.................: Movie
Name.................: Connie and Carla
Movie Information....: http://www.imdb.com/title/tt0345074/
Genre................: Comedy | Crime
-------------------------------------------------------------------------------
                                    PLOT
-------------------------------------------------------------------------------
A mob mix-up in Chicago sends two chanteuses screaming for L.A., where they score 
a perfect gig: posing as drag queens on the dinner theater/cabaret circuit. Things 
get extra-weird when a guy falls for one of the girls. 

-------------------------------------------------------------------------------
                                    CAST
-------------------------------------------------------------------------------
Nia Vardalos	... 	Connie
Toni Collette	... 	Carla
David Duchovny	... 	Jeff
Stephen Spinella	... 	Robert / Peaches
Alec Mapa	... 	Lee / N'Cream
Chris Logan	... 	Brian / Brianna (as Christopher Logan)
Robert Kaiser	... 	Paul
Ian Gomez	... 	Stanley
Nick Sandow	... 	Al
Dash Mihok	... 	Mikey
Robert John Burke	... 	Rudy
Boris McGiver	... 	Tibor

-------------------------------------------------------------------------------
                                    MEDiA iNFO
-------------------------------------------------------------------------------

General
Complete name                    : Connie.and.Carla.2004.DVDRip.AC3.X264-BARC0DE.mkv
Format                           : Matroska
File size                        : 1.47 GiB
Duration                         : 1h 37mn
Overall bit rate                 : 2 148 Kbps


Video
ID                               : 1
Format                           : AVC
Format/Info                      : Advanced Video Codec
Format profile                   : High@L3.0
Format settings, CABAC           : Yes
Format settings, ReFrames        : 3 frames
Muxing mode                      : Container profile=Unknown@3.0
Codec ID                         : V_MPEG4/ISO/AVC
Duration                         : 1h 37mn
Bit rate                         : 1 497 Kbps
Width                            : 720 pixels
Height                           : 384 pixels
Display aspect ratio             : 1.875
Frame rate                       : 23.976 fps
Color space                      : YUV
Chroma subsampling               : 4:2:0
Bit depth                        : 8 bits
Scan type                        : Progressive
Bits/(Pixel*Frame)               : 0.226
Stream size                      : 1.00 GiB (68%)
Writing library                  : x264 core 79


Audio #1
ID                               : 2
Format                           : AC-3
Format/Info                      : Audio Coding 3
Mode extension                   : CM (complete main)
Codec ID                         : A_AC3
Duration                         : 1h 37mn
Bit rate mode                    : Constant
Bit rate                         : 448 Kbps
Channel(s)                       : 6 channels
Channel positions                : Front: L C R, Side: L R, LFE
Sampling rate                    : 48.0 KHz
Stream size                      : 313 MiB (21%)
Language                         : English

Audio #2
ID                               : 3
Format                           : AC-3
Format/Info                      : Audio Coding 3
Format profile                   : Dolby Digital
Mode extension                   : CM (complete main)
Codec ID                         : A_AC3
Duration                         : 1h 37mn
Bit rate mode                    : Constant
Bit rate                         : 192 Kbps
Channel(s)                       : 2 channels
Channel positions                : Front: L R
Sampling rate                    : 48.0 KHz
Stream size                      : 134 MiB (9%)
Language                         : English

Text #1
ID                               : 4
Format                           : VobSub
Codec ID                         : S_VOBSUB
Codec ID/Info                    : The same subtitle format used on DVDs
Language                         : English

Text #2
ID                               : 5
Format                           : VobSub
Codec ID                         : S_VOBSUB
Codec ID/Info                    : The same subtitle format used on DVDs
Language                         : Spanish

Text #3
ID                               : 6
Format                           : VobSub
Codec ID                         : S_VOBSUB
Codec ID/Info                    : The same subtitle format used on DVDs
Language                         : French

Menu
00:00:00.000                     : Chapter 1
00:07:15.718                     : Chapter 2
00:11:19.628                     : Chapter 3
00:16:17.092                     : Chapter 4
00:20:14.329                     : Chapter 5
00:26:52.060                     : Chapter 6
00:33:28.790                     : Chapter 7
00:39:46.000                     : Chapter 8
00:44:43.297                     : Chapter 9
00:49:47.768                     : Chapter 10
00:54:35.555                     : Chapter 11
00:58:30.790                     : Chapter 12
01:02:03.669                     : Chapter 13
01:07:29.161                     : Chapter 14
01:13:51.710                     : Chapter 15
01:19:49.067                     : Chapter 16
01:26:49.153                     : Chapter 17
01:33:12.620                     : Chapter 18